<?xml version="1.0" encoding="utf-8"?>
<!-- Generator: Adobe Illustrator 15.0.0, SVG Export Plug-In . SVG Version: 6.00 Build 0)  -->
<!DOCTYPE svg PUBLIC "-//W3C//DTD SVG 1.1 Tiny//EN" "http://www.w3.org/Graphics/SVG/1.1/DTD/svg11-tiny.dtd">
<svg version="1.1" baseProfile="tiny"
	 id="svg2" sodipodi:docname="psearch.svg" inkscape:version="0.48.0 r9654" xmlns:dc="http://purl.org/dc/elements/1.1/" xmlns:cc="http://creativecommons.org/ns#" xmlns:rdf="http://www.w3.org/1999/02/22-rdf-syntax-ns#" xmlns:svg="http://www.w3.org/2000/svg" xmlns:sodipodi="http://sodipodi.sourceforge.net/DTD/sodipodi-0.dtd" xmlns:inkscape="http://www.inkscape.org/namespaces/inkscape"
	 xmlns="http://www.w3.org/2000/svg" xmlns:xlink="http://www.w3.org/1999/xlink" x="0px" y="0px" width="60px" height="60px"
	 viewBox="0 0 60 60" xml:space="preserve">
<sodipodi:namedview  id="base" inkscape:window-y="-8" inkscape:window-x="-8" inkscape:window-height="920" inkscape:window-width="1600" inkscape:current-layer="layer1" inkscape:document-units="px" inkscape:pageshadow="2" inkscape:pageopacity="0.0" showgrid="false" inkscape:cy="32.248097" inkscape:cx="31.530902" inkscape:zoom="7.9195959" borderopacity="1.0" bordercolor="#666666" pagecolor="#ffffff" inkscape:window-maximized="1">
	</sodipodi:namedview>
<g id="layer1" transform="translate(0,-992.36218)" inkscape:groupmode="layer" inkscape:label="Layer 1">
	<path id="rect3829" fill="#FFFFFF" d="M11.802,999.56h37.625c2.681,0,4.854,2.173,4.854,4.854v35.406
		c0,2.68-2.173,4.854-4.854,4.854H11.802c-2.68,0-4.853-2.174-4.853-4.854v-35.406C6.949,1001.733,9.122,999.56,11.802,999.56z"/>
	<path id="rect3803" inkscape:connector-curvature="0" fill="#0D6DAD" d="M11.814,999.563c-2.689,0-4.857,2.168-4.857,4.857v35.413
		c0,2.688,2.168,4.827,4.857,4.827h37.621c2.688,0,4.857-2.139,4.857-4.827v-35.413c0-2.689-2.169-4.857-4.857-4.857H11.814
		L11.814,999.563z M24.031,1002.919h11.952c3.985,0,7.183,3.227,7.183,7.212v23.432c0,3.985-3.197,7.183-7.183,7.183H24.031
		c-3.985,0-7.212-3.197-7.212-7.183v-23.432C16.819,1006.146,20.045,1002.919,24.031,1002.919L24.031,1002.919z M25.208,1005.48
		c-3.19,0-5.77,2.579-5.77,5.77v18.752c0,3.19,2.58,5.77,5.77,5.77h9.567c3.19,0,5.77-2.579,5.77-5.77v-18.752
		c0-3.19-2.579-5.77-5.77-5.77H25.208z M28.417,1012.663c3.423,0,6.212,2.69,6.212,6.005c0,1.45-0.532,2.79-1.414,3.827l4.74,5.623
		c0.328,0.391,0.273,0.966-0.118,1.295l-0.235,0.206c-0.392,0.329-0.967,0.274-1.295-0.118l-4.77-5.651
		c-0.912,0.514-1.987,0.824-3.12,0.824c-3.423,0-6.182-2.691-6.182-6.005S24.994,1012.663,28.417,1012.663L28.417,1012.663z
		 M28.417,1014.37c-2.452,0-4.445,1.923-4.445,4.298c0,2.374,1.993,4.297,4.445,4.297s4.444-1.923,4.444-4.297
		C32.861,1016.294,30.869,1014.37,28.417,1014.37z M30.095,1037.331c-1.115,0-1.64,0.08-1.795,0.207
		c-0.304,0.248-0.281,1.193,0.029,1.53c0.214,0.233,0.417,0.245,1.825,0.206c1.46-0.042,1.55-0.055,1.795-0.354
		c0.338-0.41,0.338-0.855,0-1.266C31.697,1037.352,31.604,1037.331,30.095,1037.331L30.095,1037.331z"/>
</g>
</svg>
